<?xml version="1.0" encoding="utf-8"?>
<!-- Generator: Adobe Illustrator 22.1.0, SVG Export Plug-In . SVG Version: 6.00 Build 0)  -->
<svg version="1.1" id="Layer_1" xmlns="http://www.w3.org/2000/svg" xmlns:xlink="http://www.w3.org/1999/xlink" x="0px" y="0px"
	 viewBox="0 0 841.9 595.3" style="enable-background:new 0 0 841.9 595.3;" xml:space="preserve">
<style type="text/css">
	.st0{fill:none;}
	.st1{fill:#AC1410;}
	.st2{fill:none;stroke:#AC1410;stroke-width:4;stroke-miterlimit:10;}
</style>
<path class="st0" d="M405.6,221.4c-0.6-0.9-1.3-0.9-2.2-0.1c-0.6,2.5-1.1,5.5-1.7,8.7c-0.5,2.7-1,5.6-1.5,8.7c0.5,1,1.6,1,2.4,0.1
	c0.5-3.1,1.1-6.1,1.6-8.8C404.8,226.9,405,224,405.6,221.4z"/>
<path class="st0" d="M462.2,335.8c0.5,1.1,1.7,0.8,2.5,0c0.8-3.1,1.5-6.2,2.1-9.4c0.6-3.1,1.1-6.4,1.5-9.5c-0.6-1-1.5-0.6-2.3,0.3
	c-0.4,3.1-1,6.2-1.6,9.3C463.9,329.5,463,332.7,462.2,335.8z"/>
<path class="st0" d="M431.8,317c-1.4,4.4-0.3,4.6-0.3,9.2c0,4.6-1,4.8,0.4,9.2c0.5,1.5,2.1,1.5,2.5,0c1.4-4.4,0.6-4.5,0.7-9.2
	c0-4.6,0.6-4.7-0.4-9.2C434.3,315.3,432.3,315.5,431.8,317z"/>
<path class="st0" d="M449.6,317.1c-0.2,3-0.7,6-1,9.2c-0.2,3.1-0.1,6-0.4,9.2c0.6,1,1.1,0.9,1.8,0c0.3-3.1,0.5-6.1,0.7-9.2
	c0.3-3.2,0.8-6.2,1-9.3C451.3,315.9,450.3,316.2,449.6,317.1z"/>
<path class="st0" d="M452.1,239.2c-0.2-3.2-0.6-6-0.8-8.7c-0.3-3.3-0.2-6.3-0.5-8.8c-0.8-0.8-1.3-0.7-2,0.1c0.3,2.6,0,5.3,0.2,8.7
	c0.2,2.7,0.7,5.6,0.9,8.8C450.4,240.3,451.5,240.1,452.1,239.2z"/>
<path class="st0" d="M449.4,307.8c0.6,1,1.5,0.5,2.2-0.4c0.2-3.2-0.1-6.1,0.1-9.2c0.1-3.2,0.7-6.3,0.8-9.3c0.1-3.2,1.1-6.3,1.1-9.3
	c0-3.2-1.6-6.3-1.7-9.3c0-3.2,0-6.3-0.1-9.3c-0.1-3.3,1.4-7,1.3-9.9c-0.7-0.9-1.4,0.3-2,1.2c0.1,2.9-0.5,5.4-0.4,8.7
	c0.1,3-1,6.1-1,9.4c0,3,0.1,6.1,0.1,9.3c0,3,1.7,6.2,1.6,9.4c-0.1,3-0.5,6.2-0.7,9.3C450.5,301.4,449.6,304.6,449.4,307.8z"/>
<path class="st0" d="M432.4,251.5c-1.4,4.4-0.1,4.6-0.1,9.3c0,4.7,0.5,4.7,0.4,9.4c0,4.7-1,4.7-1,9.4c0,4.7-0.4,4.7-0.4,9.4
	c0,4.7-0.4,4.7-0.5,9.4c0,4.7-1.1,5.1,0.3,9.6c0.5,1.5,2.6,1,3.1-0.4c1.4-4.4-0.3-4.5-0.2-9.2c0-4.7,0.3-4.7,0.3-9.4
	c0-4.7,1.7-4.7,1.7-9.4c0-4.7,0-4.7,0.1-9.4c0-4.7-1.7-4.7-1.7-9.4c0-4.7,2.2-4.9,1.3-9.5C435.4,249.8,432.9,250.1,432.4,251.5z"/>
<path class="st0" d="M417.4,238.9c0.2-3.2,0.3-6.1,0.6-8.8c0.3-3.3,0.7-6.3,1-8.8c-0.7-0.9-1.4-0.6-2.2,0.2
	c-0.3,2.5-0.5,5.3-0.8,8.6c-0.2,2.7-0.8,5.6-1.1,8.8C415.4,240.1,416.8,239.8,417.4,238.9z"/>
<path class="st0" d="M467.4,239.5c-0.5-3.2-0.8-6.3-1.3-9.1c-0.6-3.3-1.5-6.2-2-8.8c-0.8-0.8-1.4-0.8-2,0.1c0.5,2.6,1.1,5.4,1.7,8.7
	c0.5,2.7,1,5.6,1.4,8.8C465.9,240.4,466.9,240.5,467.4,239.5z"/>
<path class="st0" d="M418.1,250.7c-0.6-0.9-1.7,0.4-2.4,1.2c-0.2,3-1.7,5.4-1.8,8.7c-0.1,3,0.3,6.2,0.2,9.4c-0.1,3-0.6,6.2-0.6,9.4
	c0,3,0.1,6.2,0.1,9.4c0.1,3.1,0.7,6.2,0.8,9.4c0.1,3.1-0.3,6.7-0.1,9.9c0.7,0.9,2.1,0.4,2.7-0.6c-0.2-3.2,0.4-6.3,0.3-9.3
	c-0.1-3.2-1.4-6.3-1.4-9.4c-0.1-3.2,1.5-6.4,1.5-9.4c0-3.2-1.7-6.4-1.6-9.4c0.1-3.3,1.9-6.3,2-9.3
	C417.9,257.4,417.9,253.6,418.1,250.7z"/>
<path class="st0" d="M435.1,239.1c1.4-4.2,0.1-4.4,0.2-8.8c0-4.4,1.6-4.7,0.2-8.9c-0.5-1.4-2.6-1.3-3.1,0.1
	c-1.4,4.2-0.1,4.4-0.1,8.7c0,4.4-1.3,4.6-0.3,8.8C432.4,240.7,434.6,240.5,435.1,239.1z"/>
<path class="st0" d="M415.1,317.1c0.2,3,0.1,6,0.3,9.2c0.2,3,0.7,6,1,9.1c0.7,0.9,1.3,0.9,1.9-0.1c-0.3-3.1,0-6-0.2-9
	c-0.2-3.1-0.9-6.1-1.1-9.1C416.5,316,415.7,316.1,415.1,317.1z"/>
<path class="st0" d="M466.8,307.3c0.6,1,1,1.1,1.7,0.3c0.4-3.1,1.3-6.1,1.5-9.2c0.2-3.1,0.6-6.3,0.6-9.4c0.1-3.1-0.3-6.3-0.4-9.4
	c-0.1-3.2-1.3-6.2-1.5-9.3c-0.2-3.2-0.9-6.2-1.2-9.2c-0.3-3.2-0.2-5.8-0.6-8.8c-0.7-0.9-0.3-1.1-0.9-0.2c0.4,3,0.6,5.6,0.9,8.8
	c0.3,3-0.9,6.2-0.7,9.4c0.2,3,2,6.1,2,9.3c0.1,3.1,0,6.2,0,9.4c-0.1,3.1-0.2,6.2-0.4,9.4C467.7,301.5,467.2,304.2,466.8,307.3z"/>
<path class="st0" d="M398.3,316.8c0.4,3.1,1.3,6.3,1.8,9.4c0.6,3.1,1.1,6,1.9,9c0.8,0.8,1.4,1.1,1.9,0.1c-0.7-3-1.1-6-1.7-9
	c-0.6-3.1-0.9-6.3-1.2-9.4C400.3,315.6,398.9,315.9,398.3,316.8z"/>
<path class="st0" d="M402.6,250.8c-0.6-1-1.4,0.1-2.2,1c-0.4,3-1,5.5-1.4,8.8c-0.3,3-2,6.1-2.2,9.3c-0.2,3.1-0.3,6.3-0.4,9.5
	c-0.1,3.1-0.3,6.3-0.2,9.5c0,3.1,1.9,6.2,2.1,9.4c0.2,3.1-1.1,6.9-0.7,10c0.7,0.9,2.8,0.7,3.4-0.2c-0.3-3.1-1.1-6.6-1.3-9.7
	c-0.2-3.2-1.2-6.3-1.2-9.4c0-3.2,0.8-6.4,0.9-9.5c0.1-3.2,1.2-6.3,1.4-9.4c0.2-3.2-1-6.5-0.7-9.5
	C400.3,257.2,402.1,253.8,402.6,250.8z"/>
<path class="st1" d="M401.8,346.9c1.2,0.4,0.6,1.3,1.8,0.7c-0.3-1.1,0.1-2.9-0.2-4c-1.5-0.5-1.7-0.5-3.2,0
	C400.7,344.8,401.2,345.8,401.8,346.9z"/>
<path class="st1" d="M400.5,220.8c-0.3,0.1-0.6,0.3-0.9,0.4c-0.4,0.2-0.8,0.6-1,1.1c-1,2.3-2.1,5.1-3.2,8.5c-0.8,2.4-1.6,5-2.4,7.8
	c-0.3,1.1,0.2,2.2,1.1,2.6c1.9,0.9,2.9,0.8,5,0c0.7-0.3,1.2-0.9,1.3-1.7c0.4-3,0.6-6.1,1.1-8.6c0.5-2.7,1.1-5.3,1.6-7.6
	C403.4,221.6,402,220.2,400.5,220.8z"/>
<path class="st1" d="M398.5,317.1c-3.1-1.4-3.8-1.8-6.8-0.2c0.8,3.1,2.2,6.2,3.2,9.4c1.1,3,2.1,5.9,3.4,9c1.6,1,2.2,1.5,3.5,0.1
	c-0.7-3-1-6-1.6-9.1C399.6,323.1,398.8,320.2,398.5,317.1z"/>
<path class="st1" d="M405.6,207.2c-1.5-0.6-1.6-0.4-3.1,0.2c-1.5,0.6-0.5,1.4-1.4,4c1.7,1.5,2,0.6,3.8,0
	C405.1,209.8,405.4,208.4,405.6,207.2z"/>
<path class="st1" d="M399.8,251c-3.8-1.5-4-0.3-7.8,1c-0.8,3-0.9,5.4-1.5,8.7c-0.6,3-2.9,5.9-3.3,9.2c-0.3,3.1,0.3,6.4,0.2,9.7
	c-0.1,3.1-0.5,6.3-0.3,9.5c0.2,3.1,2,6,2.5,9.2c0.5,3,0.7,6,1.5,9.1c3.4,1.3,3.7,1.4,7-0.1c-0.3-3.1-0.8-5.9-1-9
	c-0.2-3.2,0.2-6.3,0.1-9.5c0-3.2-0.7-6.4-0.6-9.5c0.1-3.2-0.1-6.4,0.2-9.5c0.2-3.2,0.6-6.4,0.9-9.4C398,257.1,399.4,254,399.8,251z"
	/>
<path class="st1" d="M417.2,251.4c-0.2,3,0.6,6.8,0.4,10.1c-0.1,3-2.1,5.4-2.2,8.6c-0.1,3,1.4,6.2,1.4,9.4c0,3,0.3,6.9,0.3,10.1
	c0.1,3.1,0.1,5.5,0.2,8.7c0.1,3.1-0.5,6.2-0.4,9.4c3.4,1.4,3.7-1.7,7.4-1.7c3.7,0,4.8,4.4,7.1,1.4c2.9-3.6,0.8-4.4,0.8-9.1
	c0-4.7-0.7-4.7-0.6-9.4c0-4.7-1.1-4.7-1.1-9.4c0-4.7,1.3-4.7,1.4-9.4c0-4.7-1.6-4.7-1.6-9.4c0-4.7,5-6.1,2.2-9.7c-2.4-3-5.5,1.4-8,2
	C420.8,253.9,420.7,250,417.2,251.4z"/>
<path class="st1" d="M432.6,207.2c0-0.1-0.3-0.2-0.3-0.2c-6.3,0-6.3-0.1-12.6,0.5c-0.1,1.3-0.3,2.8-0.4,4.4c6.5,0.8,6.6,0.7,13-0.3
	C433.7,211.3,432.6,209.3,432.6,207.2z"/>
<path class="st1" d="M419.1,347.6c6.2,0.6,6.2,0.3,12.4,0.3c0,0,0,0.1,0.1,0.1c0,0,0.3-0.1,0.3-0.2c0.1-1.6,1.4-2.8-0.2-3.2
	c-6.2-1.6-6.5-0.5-12.9,0C418.9,345.7,419,346.5,419.1,347.6z"/>
<path class="st1" d="M432.3,241.8c2.9-3.9,0.2-5.3,0.2-10.5s1.3-7.5-0.3-9.4c-4.6-5.6-6.8-1.1-13.4-1.3c-2.5-0.1-0.7,6.7-1,10.6
	c-0.2,3.2-0.3,6.7-0.6,10.4c3.4,1.8,3.9-1.4,7.5-0.4C428.8,242.4,429.9,245.2,432.3,241.8z"/>
<path class="st1" d="M417.3,317.3c0.2,3,0.6,5.8,0.8,8.9c0.2,3,0.6,5.2-0.3,9.1c-0.8,3.4,5.5-1.8,7-1.8c1.4-0.1,2.7,2.4,5.5,0.4
	c3.7-2.5,1.1-3.1,1.2-7.7c0-4.6,3-5.5,0.2-9.1c-2.3-3-3.5-0.1-7.1-0.5C420.9,316.3,420.7,315.9,417.3,317.3z"/>
<path class="st1" d="M413.6,241.7c1-0.3,1.7-1.3,1.8-2.5c0.1-2.8,0.1-5.6,0.3-8c0.2-2.6,0.5-5,0.8-7.1c0.2-1.4-0.7-2.7-1.9-3
	c-3-0.7-4-0.4-7.3,0.4c-0.9,0.2-1.6,1-1.8,2c-0.5,2.3-1,4.7-1.5,7.6c-0.4,2.5-0.8,5.2-1.2,8c-0.1,1,0.3,2.1,1,2.6
	C407.4,244.5,409.2,243,413.6,241.7z"/>
<path class="st1" d="M415,250.9c-6.3-1.5-6.9-1.9-13.3-0.5c-0.4,3-0.3,6.9-0.6,10.2c-0.3,3-1.3,6.1-1.6,9.3
	c-0.2,3.1-0.1,6.2-0.2,9.4c-0.1,3.1,0.5,6.2,0.5,9.4c0,3.1-0.6,6.3-0.4,9.4c0.2,3.1,0.8,5.8,1.1,8.9c3.4,1.4,3.4,1.4,7,1.4
	s3.9,0.5,7.2-1c-0.2-3.2,0.8-6.2,0.7-9.3c-0.1-3.2-1.8-6.3-1.8-9.3c-0.1-3.2,0.4-6.4,0.4-9.4c0-3.2-0.6-6.4-0.6-9.4
	c0.1-3.3,0.3-6.4,0.4-9.4C414,257.3,414.9,253.8,415,250.9z"/>
<path class="st1" d="M417.4,207.2c-5.2-0.6-5.2-0.4-10.4,0.1c-0.2,1.2-0.4,2.5-0.6,4c5.3,0.8,5.4,1.2,10.7,0.5
	C417.2,210.4,417.3,208.4,417.4,207.2z"/>
<path class="st1" d="M400.7,317c0.4,3.1,1.2,6.2,1.7,9.2c0.6,3.1,0.8,6.4,1.6,9.5c6,1.4,6.3,1.2,12.3-0.3c-0.3-3.1-0.5-6-0.8-9.1
	c-0.2-3.1-0.4-6.3-0.5-9.3c-3.3-1.4-3.6,0.7-7.2,0.2C404.2,316.7,404,315.5,400.7,317z"/>
<path class="st1" d="M405.8,347.9c5.5,0.5,5.6,0.4,11.1-0.1c-0.1-1.1-0.2-2.2-0.3-3.3c-5.8-0.6-5.9-0.6-11.7-0.1
	C405.2,345.5,405.5,346.8,405.8,347.9z"/>
<path class="st1" d="M468.6,307.5c3.2,1.5,3.6,1.2,7-0.1c0.8-3,1.2-5.9,1.8-8.9c0.6-3.1,2.2-6,2.4-9.1c0.3-3.2-1.5-6.3-1.5-9.4
	c-0.1-3.2,0.7-6.4,0.4-9.5c-0.3-3.3-0.7-6.4-1.2-9.4c-0.6-3.3-1-7.3-1.7-10.3c-3.7-1.3-4.3,0-8,1.4c0.4,3-0.3,5.7,0,8.9
	c0.3,3,1.1,6,1.3,9.2c0.2,3,0.7,6.1,0.8,9.3c0.1,3.1-0.4,6.2-0.5,9.3c-0.1,3.1,0.8,6.2,0.6,9.4C469.8,301.5,469,304.4,468.6,307.5z"
	/>
<path class="st1" d="M468.1,316.9c-0.4,3.1-1.1,6.3-1.7,9.4c-0.6,3.1-1.2,6.4-2,9.4c1.2,1.3,2,0.6,3.5-0.4c1.3-3.1,2.5-6,3.6-9
	c1.1-3.2,2.1-6.1,3-9.2C472.7,314.1,471.2,315.6,468.1,316.9z"/>
<path class="st1" d="M464.3,207.5c-1.4-0.6-1.5-0.5-2.9,0.1c0.2,1.2,0.4,2.6,0.6,4.1c1.7,0.7,2.1,1.6,3.6,0.2
	C464.8,209.1,465.7,208.1,464.3,207.5z"/>
<path class="st1" d="M462.7,348c1,0.6,0.5-0.4,1.6-0.8c0.5-1.1,1.1-2.1,1.6-3.2c-1.3-0.6-1.5-0.4-2.9,0.1
	C462.7,345.2,463.1,347,462.7,348z"/>
<path class="st1" d="M465.6,240.7c4.1,1.5,4.8,2,8.8,0.2c-1.1-3.6-3.2-6.7-4.3-9.6c-1.5-3.8-1.7-7.4-3-9.9c-2.4-0.9-3-0.7-5.1,0.6
	c0.6,2.8,0.6,5.8,1.3,9.4C463.9,234.3,465.1,237.3,465.6,240.7z"/>
<path class="st1" d="M465.6,251.3c-6.4-1.5-6.8-1.4-13.2,0c0.1,2.9,0.1,6.4,0.2,9.7c0.1,3,0.8,6.1,0.8,9.3c0,3,0.6,6.1,0.5,9.3
	c0,3-0.2,6.2-0.3,9.3c-0.1,3-1.2,6.1-1.4,9.3c-0.1,3-0.2,6.5-0.4,9.7c3.3,1.5,3.8-2.2,7.4-2.2c3.6,0,4,3.6,7.4,2.2
	c0.4-3.1,0.6-6.5,0.8-9.6c0.2-3.1-0.9-6.3-0.8-9.3c0.1-3.2,1.2-6.3,1.1-9.3c-0.1-3.2-1.1-6.3-1.3-9.4c-0.2-3.2-2.2-6.3-2.5-9.3
	C463.7,257.7,466,254.3,465.6,251.3z"/>
<path class="st1" d="M451.5,316.7c-0.2,3-0.5,6.4-0.8,9.6c-0.2,3.1-0.3,5.9-0.6,9c5.9,1.6,6.3,2,12.2,0.6c0.8-3.1,1.3-6.4,1.9-9.6
	c0.6-3.1,1.1-6,1.5-9.1c-3.3-1.5-3.5,0.1-7-0.4C455.2,316.3,454.9,315.4,451.5,316.7z"/>
<path class="st1" d="M463.7,240.2c-0.5-3.3-1.2-6-1.7-8.9c-0.6-3.5-0.9-6.3-1.4-9c-5.4-1.3-5.6-1.8-11-0.5c0.3,2.7,0.8,5.8,1,9.3
	c0.2,2.8,0.2,6,0.3,9.3C456.3,244.2,457.5,241.8,463.7,240.2z"/>
<path class="st1" d="M459.9,207.6c-5.2-0.7-5.2-0.7-10.4-0.1c0.1,1.4,0.2,2.3,0.3,3.9c5.3,0.8,5.4,1.1,10.7,0.3
	C460.3,210.1,460.1,208.9,459.9,207.6z"/>
<path class="st1" d="M449.4,348c5.5,0.6,5.6,0.5,11.1,0c0.4-1.1,0.7-2.4,1-3.5c-5.8-0.6-5.9-0.4-11.7,0.1
	C449.7,345.8,449.5,347,449.4,348z"/>
<path class="st1" d="M434.7,347.6c6.1,1.6,6.2,0.7,12.5,0.2c0.1-1.1,0.2-1.8,0.3-2.9c-6.4-0.6-6.6-1.6-12.9-0.5
	C432.9,344.8,433.2,347.2,434.7,347.6z"/>
<path class="st1" d="M435.5,318.6c-2.8,3.6-0.6,3.1-0.6,7.7s-1.8,5.4,1.9,8c2.7,1.9,2.2-0.5,4-0.5c1.3,0,2.7,2.9,4.5,2.4
	c1.6-0.4,2.8-1.8,2.9-3.5c0.2-2.1,0.3-4.3,0.5-6.4c0.1-1.6,0.3-3.3,0.5-5c0.3-2.6-1.9-4.9-4.4-4.3c-0.7,0.2-1.5,0.2-2.6-0.1
	C438.3,316,437.9,315.6,435.5,318.6z"/>
<path class="st1" d="M444.3,242.3c3.4,0.8,4.7-4.3,4.4-7.8c-0.1-0.8-0.2-1.6-0.2-2.4c-0.1-2.3-0.2-4.2-0.3-6.1
	c-0.1-2.1-1.4-4-3.4-4.7c-2.3-0.8-3.8-1.6-5.5-1.4c-2.5,0.3-4.3,2.5-4.4,4.9c-0.1,2.5-0.3,5.9-0.3,7.1c0,5.1-0.4,5.2,2.4,9.1
	c2.4,3.3,1.4-1.5,5-0.9C442.2,240.2,444.2,242.3,444.3,242.3z"/>
<path class="st1" d="M448,207.7c-6.3-0.6-6.5-1.5-12.7,0.2c-1.3,0.4-1.3,3.2,0,3.6c6.4,1.8,6.5,0.6,13,0
	C448.2,210.2,448.1,208.8,448,207.7z"/>
<path class="st1" d="M450.1,251.5c-3.5-1.4-3.8-0.5-7.5-0.6s-4.3-1.7-6.7,1.3c-2.9,3.6,0,3.3-0.1,7.9c0,4.7,0.1,5.4,0.1,10.1
	c0,4.7-0.7,4.7-0.7,9.4c0,4.7-0.9,4.7-1,9.4c0,4.7,0.5,4.7,0.5,9.4c0,4.7-2,5.1,0.8,8.8c2.3,3,3-0.3,6.7-0.3s4.1,2.8,7.6,1.4
	c0.2-3.2-0.6-6.8-0.5-9.8c0.1-3.2,1.5-6.3,1.6-9.3c0.1-3.2-1.1-6.3-1.1-9.4c0-3.2,1-6.3,1-9.3c0-3.2-0.1-6.4-0.1-9.3
	C450.6,257.7,450.3,254.4,450.1,251.5z"/>
<g>
	<path class="st1" d="M435.3,217.8c1.1-1,1.1-1.9,0.1-3c-1-1.1-2-1-3,0s-0.7,1.6,0,3C433,219.2,434.2,218.8,435.3,217.8z"/>
</g>
<g>
	<path class="st1" d="M405.7,217.6c0.2-1.1,0.5-2,0.7-2.9c-1-0.5-1.2-0.4-2.2,0c-0.2,0.9-0.4,1.9-0.6,3
		C404.1,218.6,404.6,218,405.7,217.6z"/>
</g>
<g>
	<path class="st1" d="M464.1,218c-0.2-1.1-0.5-2.1-0.7-3c-1-0.4-1.2-0.5-2.2,0c0.2,0.9,0.4,1.9,0.6,3
		C462.7,218.8,463.2,218.5,464.1,218z"/>
</g>
<g>
	<path class="st1" d="M450.9,217.9c-0.1-1.1-0.2-2-0.3-3c-1-0.4-1.2-0.5-2.2-0.1c0.1,0.9,0.2,2,0.3,3
		C449.3,218.8,449.9,218.4,450.9,217.9z"/>
</g>
<g>
	<path class="st1" d="M418.9,217.7c0.1-1.1,0.3-2,0.4-2.9c-1-0.4-1.2-0.4-2.2,0c-0.1,0.9-0.2,1.9-0.3,3
		C417.4,218.6,417.9,218.1,418.9,217.7z"/>
</g>
<g>
	<path class="st1" d="M404.1,214.7c-1.9-0.5-1.9-0.3-3.8,0.1c-0.4,0.8-0.9,1.7-1.4,2.9c2.2,0.6,2.3,0.4,4.5,0
		C403.7,216.5,403.9,215.6,404.1,214.7z"/>
</g>
<g>
	<path class="st1" d="M432.3,216.7c1.5-0.2,1.5-1.5,0-1.7c-6.3-0.9-6.5-0.4-13-0.2c-0.1,0.6-0.3,1.3-0.4,2
		C425.2,218.2,425.8,217.5,432.3,216.7z"/>
</g>
<g>
	<path class="st1" d="M416.7,217.3c0.1-0.9,0.2-1.8,0.4-2.6c-5.3-0.4-5.4-0.2-10.7,0.2c-0.2,0.8-0.5,1.6-0.7,2.5
		C411,218.7,411.2,217.7,416.7,217.3z"/>
</g>
<g>
	<path class="st1" d="M468.4,217.9c-0.5-1.2-0.9-2.1-1.3-2.9c-1.8-0.4-1.9-0.5-3.6-0.1c0.2,0.9,0.5,1.9,0.7,3
		C466,219.1,466.4,218.5,468.4,217.9z"/>
</g>
<g>
	<path class="st1" d="M461.9,217.7c-0.2-1-0.4-2-0.6-2.9c-5.3-0.4-5.4-0.2-10.7,0.2c0.1,0.8,0.2,1.4,0.4,2.4
		C456.2,218.8,456.4,218.1,461.9,217.7z"/>
</g>
<g>
	<path class="st1" d="M448.6,217c-0.1-0.8-0.2-1.3-0.3-2.1c-6.5-0.4-6.6-1.1-13,0c-1.5,0.3-1.4,1.6,0,2.2
		C441.3,219.4,442,217.4,448.6,217z"/>
</g>
<g>
	<path class="st1" d="M435.5,247.2c1.1-1,1.1-1.9,0.1-2.9c-1-1.1-1.9-1.1-3-0.1c-1.1,1-0.6,1.7,0,3
		C433.3,248.6,434.5,248.2,435.5,247.2z"/>
</g>
<g>
	<path class="st1" d="M452.8,247.4c0-1-0.1-2-0.1-3c-1-0.4-1.2-0.4-2.2,0.1c0.1,1,0.1,1.9,0.2,2.9
		C451.3,248.2,451.8,247.8,452.8,247.4z"/>
</g>
<g>
	<path class="st1" d="M402.9,243.9c-1-0.5-1.2-0.4-2.2,0c-0.1,1-0.3,2-0.5,3c1,0.5,1.2,0.4,2.2-0.1
		C402.5,245.9,402.7,244.9,402.9,243.9z"/>
</g>
<g>
	<path class="st1" d="M417.7,247.1c0.1-1,0.1-2.1,0.2-3c-1-0.5-1.2-0.4-2.2,0c-0.1,1-0.1,1.9-0.2,2.9
		C416.1,247.9,416.6,247.5,417.7,247.1z"/>
</g>
<g>
	<path class="st1" d="M465.8,247.5c1,0.4,1.2,0.6,2.2,0.1c-0.1-1-0.3-2.1-0.4-3.1c-1-0.4-1.2-0.4-2.2,0
		C465.5,245.5,465.7,246.5,465.8,247.5z"/>
</g>
<g>
	<path class="st1" d="M400.6,244.3c-3.8-0.4-3.9-0.2-7.7,0.1c-0.3,0.6-0.5,1.2-0.8,1.8c4,0.4,4,0.4,8,0.1
		C400.3,245.6,400.5,245,400.6,244.3z"/>
</g>
<g>
	<path class="st1" d="M432.6,246.7c1.4-0.4,1.3-1.8,0-2.2c-3.4-1.1-3.7-0.3-7.4-0.3c-3.7,0-3.7-0.3-7.4,0c-0.1,0.7-0.1,1.4-0.1,2.2
		c3.7,0.4,3.7-0.1,7.4,0.3C428.9,247.1,429.1,247.7,432.6,246.7z"/>
</g>
<g>
	<path class="st1" d="M415.6,244.4c-6.4-0.4-6.4-0.4-12.7-0.1c-0.1,0.7-0.3,1.2-0.4,1.9c6.5,0.4,6.5,0.4,13,0.1
		C415.5,245.6,415.5,245.1,415.6,244.4z"/>
</g>
<g>
	<path class="st1" d="M468,247.7c3.9,0.5,4,0.4,7.9-0.1c-0.3-1-0.5-1.9-0.8-2.8c-3.7-0.5-3.8-0.6-7.5-0.1
		C467.8,245.6,467.9,246.7,468,247.7z"/>
</g>
<g>
	<path class="st1" d="M465.8,247.3c-0.1-0.8-0.3-1.6-0.4-2.4c-6.4-0.4-6.4-0.6-12.8-0.3c0.1,0.8,0.1,1.7,0.1,2.5
		C459.1,248.4,459.3,247.6,465.8,247.3z"/>
</g>
<g>
	<path class="st1" d="M450.5,247.4c0-0.9-0.1-1.8-0.1-2.7c-3.7-0.4-3.7,0-7.4,0c-3.7,0-3.9-1.1-7.4,0c-1.4,0.5-1.4,2,0,2.5
		c3.5,1.2,3.7-0.3,7.5-0.1C446.8,247.3,446.8,247.8,450.5,247.4z"/>
</g>
<g>
	<path class="st1" d="M447.9,339.5c-0.1,1-0.2,2-0.3,3c1,0.5,1.2,0.4,2.3,0c0.1-1,0.2-2,0.3-3C449.4,338.6,448.9,339,447.9,339.5z"
		/>
</g>
<g>
	<path class="st1" d="M431.7,339.4c-1.1,1-1.1,2,0,3c1,1.1,2,1,3,0c1.1-1,0.6-1.6,0-3C434,338,432.7,338.3,431.7,339.4z"/>
</g>
<g>
	<path class="st1" d="M402.5,339.2c0.3,1,0.6,2,0.8,3c1,0.4,1.2,0.5,2.2,0c-0.3-1-0.6-1.9-0.9-2.9
		C403.9,338.5,403.5,338.7,402.5,339.2z"/>
</g>
<g>
	<path class="st1" d="M461.6,338.8c-0.3,1.2-0.6,2.5-0.9,3.7c1,0.6,1.2,0.5,2.2,0c0.3-1.2,0.6-2.4,0.8-3.6
		C463.2,337.7,462.7,338.3,461.6,338.8z"/>
</g>
<g>
	<path class="st1" d="M416.3,339.4c0.1,1,0.2,1.9,0.3,2.9c1,0.4,1.2,0.5,2.2,0c-0.1-1-0.2-2-0.3-3
		C417.8,338.5,417.3,338.9,416.3,339.4z"/>
</g>
<g>
	<path class="st1" d="M398.1,339.2c0.5,0.8,1.1,1.6,1.7,2.5c1.9,0.4,2,0.5,3.8,0.1c-0.4-0.8-0.7-1.6-1-2.5
		C400.7,338.3,400.3,338.7,398.1,339.2z"/>
</g>
<g>
	<path class="st1" d="M417.6,339.4c0.1,0.7,0.2,1.5,0.3,2.2c6.8,0.4,7,0.9,13.7,0c1.5-0.2,1.5-1.6,0.1-2.1
		C425.6,337.3,424.6,339.1,417.6,339.4z"/>
</g>
<g>
	<path class="st1" d="M404,339.1c0.3,0.8,0.5,1.7,0.8,2.6c5.8,0.4,5.9,0.4,11.7,0c-0.1-0.8-0.2-1.5-0.3-2.3
		C410.3,338.1,410.1,338.7,404,339.1z"/>
</g>
<g>
	<path class="st1" d="M462.3,341.4c1.6,0.4,1.8,0.3,3.5,0c0.6-0.7,1.1-1.3,1.6-2c-2-0.4-2.2-0.4-4.2-0.1
		C462.9,340,462.6,340.7,462.3,341.4z"/>
</g>
<g>
	<path class="st1" d="M450.1,339.4c-0.1,0.8-0.2,1.7-0.3,2.6c5.8,0.4,5.9,0.2,11.7-0.2c0.3-0.8,0.6-1.6,0.9-2.5
		C456.4,338.1,456.2,339,450.1,339.4z"/>
</g>
<g>
	<path class="st1" d="M434.7,339.4c-1.6,0.2-1.6,2,0,2.3c6.7,1,6.9,0.2,13.8-0.1c0.1-0.7,0.2-1.2,0.3-1.8
		C442.2,338,441.6,338.4,434.7,339.4z"/>
</g>
<g>
	<g>
		<path class="st1" d="M400.4,311.4c-1-0.4-1.2-0.5-2.2,0c0.1,1,0.2,2.1,0.3,3.1c1,0.4,1.3,0.5,2.3,0
			C400.6,313.5,400.5,312.4,400.4,311.4z"/>
	</g>
	<g>
		<path class="st1" d="M466.4,311.5c-0.1,1-0.3,2-0.4,3c1,0.5,1.2,0.4,2.3,0c0.1-1,0.3-2.1,0.4-3
			C467.9,310.5,467.4,311.1,466.4,311.5z"/>
	</g>
	<g>
		<path class="st1" d="M431.8,311.4c-1.1,1-1,1.9,0,3c1,1.1,1.9,1,3,0c1.1-1,0.7-1.6,0.1-3C434.2,310,432.9,310.4,431.8,311.4z"/>
	</g>
	<g>
		<path class="st1" d="M414.8,311.4c0.1,1,0.1,1.9,0.2,2.9c1,0.4,1.2,0.5,2.2,0c-0.1-1-0.2-2-0.2-2.9
			C416.3,310.6,415.8,311,414.8,311.4z"/>
	</g>
	<g>
		<path class="st1" d="M449.6,311.4c-0.1,1-0.1,2.1-0.2,3.1c1,0.5,1.3,0.4,2.3,0c0.1-1,0.1-2,0.2-3
			C451.1,310.5,450.6,311,449.6,311.4z"/>
	</g>
	<g>
		<path class="st1" d="M398.1,311.5c-3.6-0.5-3.7-0.7-7.3-0.2c0.3,1,0.5,2.1,0.8,3.1c3.4,0.5,3.4,0.3,6.8-0.2
			C398.4,313.3,398.3,312.5,398.1,311.5z"/>
	</g>
	<g>
		<path class="st1" d="M417.1,311.3c0.1,1,0.1,2.2,0.2,3.2c3.6,0.5,3.7,0.1,7.3,0.1c3.7,0,3.9,1.1,7.3-0.2c1.4-0.6,1.5-2.7,0.1-3.3
			c-3.4-1.4-3.8,0.7-7.5,0.5C420.7,311.5,420.7,310.8,417.1,311.3z"/>
	</g>
	<g>
		<path class="st1" d="M400.4,311.5c0.1,1,0.2,2.1,0.3,3.1c3.5,0.5,3.6-0.1,7.2-0.1c3.6,0,3.6,0.2,7.1-0.3c-0.1-1-0.1-1.9-0.1-2.9
			c-3.6-0.5-3.6,0-7.2-0.1C404,311.1,404,311,400.4,311.5z"/>
	</g>
	<g>
		<path class="st1" d="M468.2,314.3c3.3,0.5,3.3,0.6,6.6,0.1c0.3-1,0.6-2,0.8-3c-3.5-0.5-3.6-0.4-7.1,0.1
			C468.5,312.5,468.3,313.3,468.2,314.3z"/>
	</g>
	<g>
		<path class="st1" d="M451.7,314.5c3.5,0.5,3.6-0.1,7.2-0.1s3.6,0.6,7.2,0.1c0.1-1,0.3-2.1,0.4-3.1c-3.6-0.5-3.6,0.1-7.2,0.1
			c-3.6,0-3.6-0.3-7.2,0.2C451.8,312.7,451.7,313.5,451.7,314.5z"/>
	</g>
	<g>
		<path class="st1" d="M434.8,311.4c-1.4,0.6-1.4,2.6,0,3.2c3.4,1.4,3.7-0.2,7.4-0.2c3.7,0,3.7,0.4,7.3-0.1c0.1-1,0.1-1.8,0.2-2.8
			c-3.7-0.5-3.8,0.7-7.4,0.2C438.4,311.2,438.2,310,434.8,311.4z"/>
	</g>
</g>
<line class="st2" x1="433" y1="344.8" x2="432.9" y2="375.1"/>
<ellipse transform="matrix(4.850024e-03 -1 1 4.850024e-03 55.722 806.13)" class="st1" cx="432.9" cy="375.1" rx="4.1" ry="29.9"/>
</svg>
